<svg width="307" height="435" viewBox="0 0 307 435" fill="none" xmlns="http://www.w3.org/2000/svg">
<path d="M79.8633 433.829V376.191C79.8633 376.191 17.4472 369.638 7.25367 382.705C-2.93983 395.771 2.08085 433.867 2.08085 433.867H79.8633V433.829Z" fill="#C2B8E0"/>
<path d="M226.832 433.829V376.191C226.832 376.191 289.249 369.638 299.442 382.705C309.636 395.771 304.615 433.867 304.615 433.867H226.832V433.829Z" fill="#C2B8E0"/>
<path d="M121.246 373.41C121.246 373.41 162.058 420.876 185.792 373.41C185.792 373.41 187.922 379.086 197.697 378.324C207.472 377.524 237.292 375.695 237.292 375.695V433.867H79.8633V376.191C79.8633 376.191 121.246 384.876 121.246 373.41Z" fill="#3C1F7A"/>
<path d="M121.246 333.371V373.41C121.246 376.61 118.507 379.124 115.312 378.857C93.8984 376.914 21.3648 371.048 10.2585 379.429C-2.82574 389.257 2.08083 433.867 2.08083 433.867" stroke="#C2B8E0" stroke-width="1.1456" stroke-miterlimit="10" stroke-linecap="round" stroke-linejoin="round"/>
<path d="M185.792 333.371V373.41C185.792 376.61 188.531 379.124 191.726 378.857C213.14 376.914 285.673 371.048 296.78 379.429C309.864 389.257 304.957 433.867 304.957 433.867" stroke="#C2B8E0" stroke-width="1.1456" stroke-miterlimit="10" stroke-linecap="round" stroke-linejoin="round"/>
<path d="M123.148 229.6C123.148 237.448 119.306 243.81 114.552 243.81C109.797 243.81 105.956 237.448 105.956 229.6C105.956 221.752 109.797 215.391 114.552 215.391C119.306 215.391 123.148 221.752 123.148 229.6Z" fill="#C2B8E0"/>
<path d="M87.014 220.305C90.247 217.6 93.6702 215.695 97.4357 214.21C101.201 212.724 105.233 211.81 109.379 211.619C113.525 211.543 117.823 212.381 121.512 214.21C125.354 215.924 128.168 219.086 130.412 222.21C130.679 222.591 130.603 223.086 130.222 223.352C129.956 223.543 129.576 223.543 129.309 223.391L129.233 223.314C126.076 221.333 123.11 219.429 119.763 218.705C116.491 217.905 113.182 217.714 109.873 218.133C106.564 218.591 103.293 219.581 100.06 220.8C96.9032 222.057 93.5561 223.581 90.7034 225.219L90.5133 225.333C89.0299 226.171 87.1281 225.638 86.3294 224.152C85.5306 222.857 85.8729 221.219 87.014 220.305Z" fill="#C2B8E0"/>
<path d="M183.852 229.6C183.852 237.448 187.694 243.81 192.448 243.81C197.203 243.81 201.044 237.448 201.044 229.6C201.044 221.752 197.203 215.391 192.448 215.391C187.694 215.391 183.852 221.752 183.852 229.6Z" fill="#C2B8E0"/>
<path d="M216.335 225.295C213.444 223.695 210.135 222.133 206.978 220.876C203.745 219.657 200.474 218.667 197.165 218.21C193.856 217.752 190.547 217.981 187.275 218.781C183.928 219.505 180.962 221.371 177.805 223.391L177.729 223.467C177.348 223.695 176.816 223.581 176.587 223.2C176.397 222.895 176.435 222.552 176.626 222.286C178.87 219.162 181.684 216 185.526 214.286C189.253 212.419 193.513 211.581 197.659 211.695C201.805 211.848 205.837 212.8 209.602 214.286C213.406 215.771 216.791 217.714 220.024 220.381C221.355 221.486 221.507 223.429 220.442 224.724C219.491 225.905 217.818 226.171 216.563 225.448L216.335 225.295Z" fill="#C2B8E0"/>
<path d="M149.811 278.286C156.619 276.495 163.009 274.857 168.866 272.152C171.795 270.819 174.496 269.105 177.044 267.162C179.592 265.143 181.646 262.667 183.852 259.848C183.358 263.314 181.836 266.819 179.44 269.6C177.044 272.381 173.963 274.552 170.692 276.114C167.383 277.562 163.884 278.552 160.346 278.895C156.809 279.276 153.234 279.2 149.811 278.286Z" fill="#C2B8E0"/>
<path d="M147.947 220.648C147.947 220.648 142.85 254.819 147.947 255.924C153.044 257.029 160.308 255.924 160.308 255.924" stroke="#C2B8E0" stroke-width="1.1456" stroke-miterlimit="10" stroke-linecap="round" stroke-linejoin="round"/>
<path d="M265.895 196.495C265.895 267.352 215.574 338.971 153.5 338.971C91.4261 338.971 41.1052 267.352 41.1052 196.495C41.1052 125.638 91.4261 68.1905 153.5 68.1905C215.574 68.1905 265.895 125.638 265.895 196.495Z" stroke="#C2B8E0" stroke-width="1.0933" stroke-miterlimit="10" stroke-linecap="round" stroke-linejoin="round"/>
<path d="M41.942 212.19C41.942 212.19 35.6281 199.238 23.647 203.581C11.6658 207.924 17.4852 256.381 49.0927 245.981" stroke="#C2B8E0" stroke-width="1.0933" stroke-miterlimit="10" stroke-linecap="round" stroke-linejoin="round"/>
<path d="M264.449 212.19C264.449 212.19 270.763 199.238 282.744 203.581C294.726 207.924 288.906 256.381 257.299 245.981" stroke="#C2B8E0" stroke-width="1.0933" stroke-miterlimit="10" stroke-linecap="round" stroke-linejoin="round"/>
<path d="M160.004 0.0381015C133.227 -0.685708 107.781 7.88572 98.8811 11.2762C97.2836 11.8857 96.7511 13.8286 97.74 15.2381C115.426 40.6095 127.484 157.981 127.484 157.981H171.681C171.681 157.981 183.928 38.8572 201.805 14.7048C202.718 13.4857 202.414 11.7714 201.082 10.9714C195.301 7.39048 179.744 -0.647613 160.004 0.0381015Z" fill="#C2B8E0"/>
<path d="M171.719 157.981C173.088 146.705 174.724 135.429 176.626 124.229C178.489 112.99 180.695 101.829 182.977 90.7048C185.412 79.581 187.998 68.4953 191.041 57.5238C192.562 52.0381 194.274 46.5905 196.024 41.181L198.99 33.181L202.376 25.3333C198.268 35.9238 195.415 46.9333 192.677 57.9429C189.976 68.9524 187.39 80 185.107 91.1619C182.673 102.248 180.467 113.41 178.261 124.533L171.719 157.981Z" fill="#C2B8E0"/>
<path d="M127.522 157.981C126.571 152.038 125.506 146.133 124.441 140.229L121.17 122.514C118.926 110.743 116.606 98.9333 113.867 87.2762C111.319 75.5429 108.352 63.9238 104.929 52.4571C103.331 46.6667 101.353 41.0286 99.3375 35.3905L96.1425 26.9714L92.377 18.7809C98.4627 29.1809 102.761 40.5333 106.526 51.9619C110.292 63.3905 113.258 75.0857 115.959 86.819C118.545 98.5905 120.904 110.362 122.805 122.248C124.745 134.095 126.343 146.019 127.522 157.981Z" fill="#C2B8E0"/>
<path d="M122.463 5.44763C124.441 9.44763 126 13.6381 127.408 17.8667C128.815 22.0953 129.956 26.4381 130.907 30.8191C132.695 39.581 133.645 48.6095 132.581 57.5238C132.2 53.0667 131.82 48.6857 131.135 44.3048C130.412 39.9619 129.69 35.581 128.777 31.2762C127.902 26.9333 126.837 22.6667 125.81 18.3619C124.745 14.0191 123.604 9.75239 122.463 5.44763Z" fill="#F0EDF7"/>
<path d="M175.104 309.905C175.104 321.867 165.443 357.029 153.5 357.029C141.557 357.029 131.896 321.867 131.896 309.905C131.896 297.943 141.557 288.267 153.5 288.267C165.443 288.267 175.104 297.943 175.104 309.905Z" fill="#C2B8E0"/>
<path d="M132.809 311.467C133.113 313.181 133.265 314.857 133.417 316.533C133.607 318.21 133.684 319.848 133.798 321.524L134.406 331.543C133.455 330.057 132.885 328.419 132.428 326.743C131.972 325.067 131.744 323.352 131.63 321.638C131.554 319.924 131.554 318.21 131.744 316.495C131.972 314.819 132.238 313.105 132.809 311.467Z" fill="#C2B8E0"/>
<path d="M175.028 308.038C175.827 310.019 176.245 312.114 176.473 314.21C176.74 316.305 176.74 318.438 176.588 320.571C176.207 324.8 175.028 329.067 172.594 332.571C172.974 330.476 173.469 328.495 173.735 326.438C174.001 324.419 174.305 322.4 174.458 320.381C174.648 318.362 174.724 316.305 174.876 314.248L175.028 308.038Z" fill="#C2B8E0"/>
<path d="M151.674 356.724C150.685 354.972 150.039 353.067 149.468 351.124C148.898 349.219 148.555 347.238 148.289 345.219C148.099 343.238 148.023 341.181 148.251 339.2C148.479 337.181 148.898 335.2 149.773 333.372C149.734 337.372 150.039 341.143 150.457 345.029L151.104 350.819C151.332 352.762 151.56 354.705 151.674 356.724Z" fill="#F0EDF7"/>
</svg>
